<svg width="16" height="16" viewBox="0 0 16 16" fill="none" xmlns="http://www.w3.org/2000/svg">
<path fill-rule="evenodd" clip-rule="evenodd" d="M8 2C4.68629 2 2 4.68629 2 8C2 11.3137 4.68629 14 8 14C11.3137 14 14 11.3137 14 8C14 4.68629 11.3137 2 8 2ZM1 8C1 4.13401 4.13401 1 8 1C11.866 1 15 4.13401 15 8C15 11.866 11.866 15 8 15C4.13401 15 1 11.866 1 8Z" fill="black" fill-opacity="0.55"/>
<path d="M8.5 6.14056V10.7463H9C9.27614 10.7463 9.5 10.9702 9.5 11.2463C9.5 11.5225 9.27614 11.7463 9 11.7463H7C6.72386 11.7463 6.5 11.5225 6.5 11.2463C6.5 10.9702 6.72386 10.7463 7 10.7463H7.5V7.14056H7C6.72386 7.14056 6.5 6.91671 6.5 6.64056C6.5 6.36442 6.72386 6.14056 7 6.14056H8.5Z" fill="black" fill-opacity="0.55"/>
<path d="M8.75 4.84919C8.75 5.26341 8.41421 5.59919 8 5.59919C7.58579 5.59919 7.25 5.26341 7.25 4.84919C7.25 4.43498 7.58579 4.09919 8 4.09919C8.41421 4.09919 8.75 4.43498 8.75 4.84919Z" fill="black" fill-opacity="0.55"/>
</svg>
